<svg xmlns="http://www.w3.org/2000/svg" width="119" height="29" viewBox="0 0 119 29">
  <metadata><?xpacket begin="﻿" id="W5M0MpCehiHzreSzNTczkc9d"?>
<x:xmpmeta xmlns:x="adobe:ns:meta/" x:xmptk="Adobe XMP Core 5.6-c142 79.160924, 2017/07/13-01:06:39        ">
   <rdf:RDF xmlns:rdf="http://www.w3.org/1999/02/22-rdf-syntax-ns#">
      <rdf:Description rdf:about=""/>
   </rdf:RDF>
</x:xmpmeta>
                                                                                                    
                                                                                                    
                                                                                                    
                                                                                                    
                                                                                                    
                                                                                                    
                                                                                                    
                                                                                                    
                                                                                                    
                                                                                                    
                                                                                                    
                                                                                                    
                                                                                                    
                                                                                                    
                                                                                                    
                                                                                                    
                                                                                                    
                                                                                                    
                                                                                                    
                                                                                                    
                           
<?xpacket end="w"?></metadata>
<defs>
    <style>
      .cls-1 {
        fill: #086892;
        fill-rule: evenodd;
      }
    </style>
  </defs>
  <path id="Shape_1_copy_9" data-name="Shape 1 copy 9" class="cls-1" d="M21.1,4.337v20.41A4.012,4.012,0,0,0,24.782,29a4.015,4.015,0,0,0,3.682-4.264h0V4.347c0-2.345-1.656-4.264-3.682-4.264h0C22.761,0.083,21.108,2,21.1,4.337h0Zm50.4-4.3H71.462c-0.375,0-.745.029-1.114,0.058h0c-0.253.021-.5,0.044-0.752,0.078h0L62.559,9.141,62.124,8.8l-0.438-.339,6.258-7.98h0a14.562,14.562,0,0,0-5.288,2.553h0c-0.018.015-.038,0.029-0.056,0.042h0c-0.272.209-.534,0.432-0.788,0.66h0c-0.062.055-.124,0.11-0.185,0.168h0c-0.231.213-.456,0.433-0.672,0.662h0c-0.076.08-.149,0.161-0.225,0.244h0c-0.2.221-.4,0.447-0.587,0.68h0c-0.074.094-.141,0.19-0.213,0.287h0a14.7,14.7,0,0,0-.966,1.435h0c-0.056.1-.118,0.187-0.17,0.283h0c-0.1.183-.189,0.373-0.282,0.557h0c-0.1.209-.209,0.414-0.3,0.626h0c-0.08.179-.149,0.364-0.22,0.547h0c-0.091.231-.181,0.462-0.258,0.7h0c-0.061.179-.115,0.359-0.167,0.541h0c-0.076.254-.141,0.513-0.2,0.773h0c-0.04.172-.08,0.346-0.114,0.52h0c-0.056.295-.1,0.591-0.136,0.89h0c-0.019.15-.045,0.295-0.059,0.447h0c-0.043.445-.069,0.9-0.069,1.352v0.043c0,0.439.028,0.873,0.067,1.3h0c0.02,0.2.05,0.406,0.077,0.606h0c0.029,0.211.06,0.421,0.1,0.63h0c0.05,0.265.1,0.529,0.166,0.79h0q0.042,0.175.091,0.346h0c0.081,0.306.167,0.609,0.267,0.908h0a0,0,0,0,1,0,0,14.488,14.488,0,0,0,13.72,9.833H71.49A14.509,14.509,0,0,0,85.978,14.471a14.316,14.316,0,0,0-1.7-6.777L76.328,18.559l-0.08.107-0.133-.1L75.8,18.342l-0.449-.325L83.663,6.66C83.44,6.317,83.2,5.987,82.954,5.667h0L82.9,5.6h0c-0.251-.317-0.512-0.623-0.787-0.916h0l-0.05-.056h0c-0.283-.3-0.579-0.589-0.885-0.864h0c-0.008-.008-0.015-0.013-0.023-0.022h0q-0.471-.42-0.98-0.8h0v0l-8.969,12.13-0.447-.327-0.447-.327L79.267,2.3a0,0,0,0,1,0,0h0a14.222,14.222,0,0,0-1.686-.917h0c-0.043-.021-0.089-0.045-0.134-0.065h0C77.187,1.2,76.923,1.1,76.658,1h0c-0.107-.041-0.216-0.08-0.324-0.118h0c-0.264-.092-0.528-0.184-0.8-0.264h0L67.08,12.173l-0.448-.324-0.447-.326,8.192-11.2c-0.017,0-.036-0.005-0.053-0.008h0Q73.646,0.178,72.95.106h0A14.158,14.158,0,0,0,71.5.032h0ZM114.72,0.04H102.812c-2.355,0-4.284,1.65-4.284,3.666h0c0,2.015,1.929,3.664,4.284,3.664h2.271V24.7a4.018,4.018,0,0,0,3.684,4.264c2.022,0,3.678-1.915,3.678-4.264h0V7.37h2.275c2.356,0,4.281-1.649,4.281-3.664S117.076,0.04,114.72.04h0Zm-18.8,24.7V4.347c0-2.345-1.656-4.264-3.681-4.264h0c-2.023,0-3.679,1.919-3.679,4.264h0v20.39c0,2.348,1.655,4.264,3.679,4.264a4.015,4.015,0,0,0,3.682-4.264h0ZM31.032,4.647v20.1A4.013,4.013,0,0,0,34.712,29a4.014,4.014,0,0,0,3.68-4.264h0V7.861h3.279c2.543,0,5.286.467,5.286,3.531h0V24.737c0,2.348,1.655,4.264,3.68,4.264s3.679-1.916,3.679-4.264h0V9.861C54.315,2.928,48.562,0,43.812,0H36.184c-3.607,0-5.147,1.329-5.152,4.648h0ZM0,9.669V24.747C0.006,27.091,1.66,29,3.679,29A4.015,4.015,0,0,0,7.36,24.737h0V18.089h6.305c2.237,0,4.065-1.564,4.065-3.478h0c0-1.914-1.829-3.481-4.065-3.481H7.36V10.345c0-2.132.536-3.3,3.478-3.3h3.63c2.235,0,4.065-1.565,4.065-3.479h0c0-1.914-1.83-3.479-4.065-3.479H9.032C3.415,0.083.006,4.474,0,9.669Z"/>
</svg>
